<?xml version="1.0" standalone="no"?>
<!DOCTYPE svg PUBLIC "-//W3C//DTD SVG 20010904//EN"
 "http://www.w3.org/TR/2001/REC-SVG-20010904/DTD/svg10.dtd">
<svg version="1.0" xmlns="http://www.w3.org/2000/svg"
 width="700.000000pt" height="700.000000pt" viewBox="0 0 700.000000 700.000000"
 preserveAspectRatio="xMidYMid meet">
<metadata>
Created by potrace 1.14, written by Peter Selinger 2001-2017
</metadata>
<g transform="translate(0.000000,700.000000) scale(0.100000,-0.100000)"
fill="#000000" stroke="none">
<path d="M1630 6982 c-55 -17 -145 -67 -180 -100 -39 -38 -90 -115 -111 -169
-21 -54 -22 -76 -25 -320 -2 -196 0 -262 9 -265 7 -2 991 -4 2187 -4 l2175 1
1 245 c1 209 -1 254 -17 308 -37 129 -113 219 -239 280 l-75 37 -1835 2
c-1689 1 -1839 0 -1890 -15z"/>
<path d="M1325 5680 c-3 -5 190 -399 429 -877 l434 -868 0 -1310 0 -1310 1311
-2 1311 -1 1 26 c0 15 0 605 0 1312 l1 1285 434 868 c239 478 434 872 434 877
0 10 -4349 10 -4355 0z m2261 -1316 c55 -6 150 -53 201 -98 58 -52 107 -129
131 -206 18 -61 19 -91 18 -575 -2 -510 -2 -510 -25 -570 -97 -247 -363 -356
-596 -246 -124 59 -200 153 -243 301 -3 8 -6 240 -7 515 -2 529 0 553 45 649
31 65 122 156 190 191 91 47 157 56 286 39z"/>
<path d="M2189 855 c-3 -83 1 -487 5 -494 3 -4 8 -23 11 -41 16 -92 126 -224
226 -273 31 -15 81 -32 111 -37 60 -11 1907 -9 1944 2 155 47 286 186 314 331
15 79 19 527 5 528 -5 1 -596 2 -1312 3 -1297 1 -1303 1 -1304 -19z"/>
</g>
</svg>
